{
  "accessors": [
    {
      "bufferView": 2,
      "componentType": 5126,
      "count": 663,
      "max": [
        0.07500000298023224,
        0.09000000357627869,
        0.029505616053938866
      ],
      "min": [
        -0.07500000298023224,
        0.0,
        -0.01500000897794962
      ],
      "type": "VEC3"
    },
    {
      "bufferView": 2,
      "byteOffset": 7956,
      "componentType": 5126,
      "count": 663,
      "max": [
        0.9990483522415161,
        0.9990483522415161,
        1.0
      ],
      "min": [
        -0.9990483522415161,
        -0.9990484714508057,
        -1.0
      ],
      "type": "VEC3"
    },
    {
      "bufferView": 1,
      "componentType": 5126,
      "count": 663,
      "max": [
        0.625,
        1.0
      ],
      "min": [
        1.5565657207616823e-08,
        0.0
      ],
      "type": "VEC2"
    },
    {
      "bufferView": 0,
      "componentType": 5125,
      "count": 2622,
      "type": "SCALAR"
    },
    {
      "bufferView": 2,
      "byteOffset": 15912,
      "componentType": 5126,
      "count": 4,
      "max": [
        0.0608578696846962,
        0.09000000357627869,
        0.024000005796551704
      ],
      "min": [
        -0.0608578696846962,
        0.09000000357627869,
        -0.013998785987496376
      ],
      "type": "VEC3"
    },
    {
      "bufferView": 2,
      "byteOffset": 15960,
      "componentType": 5126,
      "count": 4,
      "max": [
        0.04324796795845032,
        0.9905483722686768,
        0.13016758859157562
      ],
      "min": [
        -0.043247971683740616,
        0.9905479550361633,
        -0.13017919659614563
      ],
      "type": "VEC3"
    },
    {
      "bufferView": 1,
      "byteOffset": 5304,
      "componentType": 5126,
      "count": 4,
      "max": [
        3.0119857788085938,
        1.8708287477493286
      ],
      "min": [
        -1.9704821109771729,
        -0.7908755540847778
      ],
      "type": "VEC2"
    },
    {
      "bufferView": 0,
      "byteOffset": 10488,
      "componentType": 5125,
      "count": 6,
      "type": "SCALAR"
    },
    {
      "bufferView": 2,
      "byteOffset": 16008,
      "componentType": 5126,
      "count": 40,
      "max": [
        0.07400000840425491,
        0.08900000900030136,
        -0.014997152611613274
      ],
      "min": [
        -0.07400000840425491,
        0.0009999945759773254,
        -0.01500000897794962
      ],
      "type": "VEC3"
    },
    {
      "bufferView": 2,
      "byteOffset": 16488,
      "componentType": 5126,
      "count": 40,
      "max": [
        0.13444186747074127,
        0.13445007801055908,
        -0.9905500411987305
      ],
      "min": [
        -0.13444361090660095,
        -0.13505078852176666,
        -0.9910328388214111
      ],
      "type": "VEC3"
    },
    {
      "bufferView": 1,
      "byteOffset": 5336,
      "componentType": 5126,
      "count": 40,
      "max": [
        1.0413198471069336,
        1.0702296495437622
      ],
      "min": [
        -0.025790542364120483,
        -0.07826033234596252
      ],
      "type": "VEC2"
    },
    {
      "bufferView": 0,
      "byteOffset": 10512,
      "componentType": 5125,
      "count": 114,
      "type": "SCALAR"
    },
    {
      "bufferView": 2,
      "byteOffset": 16968,
      "componentType": 5126,
      "count": 40,
      "max": [
        0.0583246611058712,
        0.07207062840461731,
        0.027150958776474
      ],
      "min": [
        -0.058324720710515976,
        0.017929404973983765,
        0.0271509550511837
      ],
      "type": "VEC3"
    },
    {
      "bufferView": 2,
      "byteOffset": 17448,
      "componentType": 5126,
      "count": 40,
      "max": [
        3.197423126266585e-08,
        1.4418234661750517e-10,
        1.0
      ],
      "min": [
        3.197423126266585e-08,
        1.4418234661750517e-10,
        1.0
      ],
      "type": "VEC3"
    },
    {
      "bufferView": 1,
      "byteOffset": 5656,
      "componentType": 5126,
      "count": 40,
      "max": [
        0.9530287384986877,
        0.8514862060546875
      ],
      "min": [
        0.06277387589216232,
        0.12205970287322998
      ],
      "type": "VEC2"
    },
    {
      "bufferView": 0,
      "byteOffset": 10968,
      "componentType": 5125,
      "count": 114,
      "type": "SCALAR"
    }
  ],
  "asset": {
    "extras": {
      "author": "cmdigital888 (https://sketchfab.com/cmdigital888)",
      "license": "CC-BY-4.0 (http://creativecommons.org/licenses/by/4.0/)",
      "source": "https://sketchfab.com/3d-models/digital-alarm-clock-ed977da6f8ee49f5ae7e1f5c642ba3b8",
      "title": "Digital Alarm Clock"
    },
    "generator": "Sketchfab-15.12.0",
    "version": "2.0"
  },
  "bufferViews": [
    {
      "buffer": 0,
      "byteLength": 11424,
      "name": "floatBufferViews",
      "target": 34963
    },
    {
      "buffer": 0,
      "byteLength": 5976,
      "byteOffset": 11424,
      "byteStride": 8,
      "name": "floatBufferViews",
      "target": 34962
    },
    {
      "buffer": 0,
      "byteLength": 17928,
      "byteOffset": 17400,
      "byteStride": 12,
      "name": "floatBufferViews",
      "target": 34962
    }
  ],
  "buffers": [
    {
      "byteLength": 35328,
      "uri": "scene.bin"
    }
  ],
  "images": [
    {
      "uri": "textures/ColorWithDecal_baseColor.png"
    },
    {
      "uri": "textures/ColorWithDecal.Back_baseColor.png"
    },
    {
      "uri": "textures/material_baseColor.jpeg"
    }
  ],
  "materials": [
    {
      "doubleSided": true,
      "name": "Plastic.001",
      "pbrMetallicRoughness": {
        "baseColorFactor": [
          0.820318,
          0.842911,
          0.759844,
          1.0
        ],
        "metallicFactor": 0.0,
        "roughnessFactor": 0.727273
      }
    },
    {
      "doubleSided": true,
      "name": "ColorWithDecal",
      "pbrMetallicRoughness": {
        "baseColorFactor": [
          0.83211,
          0.83211,
          0.83211,
          1.0
        ],
        "baseColorTexture": {
          "index": 0
        },
        "metallicFactor": 0.0,
        "roughnessFactor": 0.727273
      }
    },
    {
      "doubleSided": true,
      "name": "ColorWithDecal.Back",
      "pbrMetallicRoughness": {
        "baseColorFactor": [
          0.83211,
          0.83211,
          0.83211,
          1.0
        ],
        "baseColorTexture": {
          "index": 1
        },
        "metallicFactor": 0.0,
        "roughnessFactor": 0.721
      }
    },
    {
      "doubleSided": true,
      "name": "material",
      "pbrMetallicRoughness": {
        "baseColorTexture": {
          "index": 2
        },
        "metallicFactor": 0.0,
        "roughnessFactor": 0.5
      }
    }
  ],
  "meshes": [
    {
      "name": "Object_0",
      "primitives": [
        {
          "attributes": {
            "NORMAL": 1,
            "POSITION": 0,
            "TEXCOORD_0": 2
          },
          "indices": 3,
          "material": 0,
          "mode": 4
        }
      ]
    },
    {
      "name": "Object_1",
      "primitives": [
        {
          "attributes": {
            "NORMAL": 5,
            "POSITION": 4,
            "TEXCOORD_0": 6
          },
          "indices": 7,
          "material": 1,
          "mode": 4
        }
      ]
    },
    {
      "name": "Object_2",
      "primitives": [
        {
          "attributes": {
            "NORMAL": 9,
            "POSITION": 8,
            "TEXCOORD_0": 10
          },
          "indices": 11,
          "material": 2,
          "mode": 4
        }
      ]
    },
    {
      "name": "Object_3",
      "primitives": [
        {
          "attributes": {
            "NORMAL": 13,
            "POSITION": 12,
            "TEXCOORD_0": 14
          },
          "indices": 15,
          "material": 3,
          "mode": 4
        }
      ]
    }
  ],
  "nodes": [
    {
      "children": [
        1
      ],
      "matrix": [
        1.0,
        0.0,
        0.0,
        0.0,
        0.0,
        2.220446049250313e-16,
        -1.0,
        0.0,
        0.0,
        1.0,
        2.220446049250313e-16,
        0.0,
        0.0,
        0.0,
        0.0,
        1.0
      ],
      "name": "Sketchfab_model"
    },
    {
      "children": [
        2
      ],
      "name": "root"
    },
    {
      "children": [
        3
      ],
      "matrix": [
        1.0,
        0.0,
        0.0,
        0.0,
        0.0,
        2.220446049250313e-16,
        1.0,
        0.0,
        0.0,
        -1.0,
        2.220446049250313e-16,
        0.0,
        0.0,
        0.0,
        0.0,
        1.0
      ],
      "name": "GLTF_SceneRootNode"
    },
    {
      "children": [
        4,
        5,
        6,
        7
      ],
      "name": "Clock_0"
    },
    {
      "mesh": 0,
      "name": "Object_4"
    },
    {
      "mesh": 1,
      "name": "Object_5"
    },
    {
      "mesh": 2,
      "name": "Object_6"
    },
    {
      "mesh": 3,
      "name": "Object_7"
    }
  ],
  "samplers": [
    {
      "magFilter": 9729,
      "minFilter": 9987,
      "wrapS": 33071,
      "wrapT": 33071
    },
    {
      "magFilter": 9729,
      "minFilter": 9987,
      "wrapS": 10497,
      "wrapT": 10497
    }
  ],
  "scene": 0,
  "scenes": [
    {
      "name": "Sketchfab_Scene",
      "nodes": [
        0
      ]
    }
  ],
  "textures": [
    {
      "sampler": 0,
      "source": 0
    },
    {
      "sampler": 0,
      "source": 1
    },
    {
      "sampler": 1,
      "source": 2
    }
  ]
}
