{
  "accessors": [
    {
      "bufferView": 2,
      "componentType": 5126,
      "count": 121,
      "max": [
        0.5,
        0.40028485655784607,
        0.5
      ],
      "min": [
        -0.4875248372554779,
        -0.018109213560819626,
        -0.5
      ],
      "type": "VEC3"
    },
    {
      "bufferView": 2,
      "byteOffset": 1452,
      "componentType": 5126,
      "count": 121,
      "max": [
        0.7181011438369751,
        1.0,
        0.027018198743462563
      ],
      "min": [
        -0.08395440131425858,
        0.6959388852119446,
        0.0
      ],
      "type": "VEC3"
    },
    {
      "bufferView": 1,
      "componentType": 5126,
      "count": 121,
      "max": [
        1.0,
        1.0
      ],
      "min": [
        0.0,
        0.0
      ],
      "type": "VEC2"
    },
    {
      "bufferView": 0,
      "componentType": 5125,
      "count": 600,
      "type": "SCALAR"
    },
    {
      "bufferView": 2,
      "byteOffset": 2904,
      "componentType": 5126,
      "count": 121,
      "max": [
        0.5,
        1.1102230246251565e-16,
        0.5
      ],
      "min": [
        -0.5,
        -1.1102230246251565e-16,
        -0.5
      ],
      "type": "VEC3"
    },
    {
      "bufferView": 2,
      "byteOffset": 4356,
      "componentType": 5126,
      "count": 121,
      "max": [
        0.0,
        1.0,
        2.220446578645905e-16
      ],
      "min": [
        0.0,
        1.0,
        2.220445519854721e-16
      ],
      "type": "VEC3"
    },
    {
      "bufferView": 1,
      "byteOffset": 968,
      "componentType": 5126,
      "count": 121,
      "max": [
        1.0,
        1.0
      ],
      "min": [
        0.0,
        0.0
      ],
      "type": "VEC2"
    },
    {
      "bufferView": 0,
      "byteOffset": 2400,
      "componentType": 5125,
      "count": 600,
      "type": "SCALAR"
    },
    {
      "bufferView": 2,
      "byteOffset": 5808,
      "componentType": 5126,
      "count": 121,
      "max": [
        0.5,
        0.019592860713601112,
        0.5
      ],
      "min": [
        -0.5,
        -0.019592860713601112,
        -0.5
      ],
      "type": "VEC3"
    },
    {
      "bufferView": 2,
      "byteOffset": 7260,
      "componentType": 5126,
      "count": 121,
      "max": [
        0.3689347505569458,
        1.0,
        0.024593757465481758
      ],
      "min": [
        -0.09718959778547287,
        0.9294552803039551,
        0.0
      ],
      "type": "VEC3"
    },
    {
      "bufferView": 1,
      "byteOffset": 1936,
      "componentType": 5126,
      "count": 121,
      "max": [
        1.0,
        1.0
      ],
      "min": [
        0.0,
        0.0
      ],
      "type": "VEC2"
    },
    {
      "bufferView": 0,
      "byteOffset": 4800,
      "componentType": 5125,
      "count": 600,
      "type": "SCALAR"
    },
    {
      "bufferView": 2,
      "byteOffset": 8712,
      "componentType": 5126,
      "count": 121,
      "max": [
        0.5267680883407593,
        0.202457457780838,
        -0.03573077917098999
      ],
      "min": [
        -0.46836045384407043,
        -0.03064700961112976,
        -1.0357308387756348
      ],
      "type": "VEC3"
    },
    {
      "bufferView": 2,
      "byteOffset": 10164,
      "componentType": 5126,
      "count": 121,
      "max": [
        0.6900084018707275,
        1.0,
        0.020865844562649727
      ],
      "min": [
        -0.14794543385505676,
        0.7238014340400696,
        -2.1278756889842043e-07
      ],
      "type": "VEC3"
    },
    {
      "bufferView": 1,
      "byteOffset": 2904,
      "componentType": 5126,
      "count": 121,
      "max": [
        1.0,
        1.0
      ],
      "min": [
        0.0,
        0.0
      ],
      "type": "VEC2"
    },
    {
      "bufferView": 0,
      "byteOffset": 7200,
      "componentType": 5125,
      "count": 600,
      "type": "SCALAR"
    },
    {
      "bufferView": 2,
      "byteOffset": 11616,
      "componentType": 5126,
      "count": 121,
      "max": [
        0.5267680883407593,
        0.007599088363349438,
        -0.03573077917098999
      ],
      "min": [
        -0.47323188185691833,
        -0.007599085569381714,
        -1.0357308387756348
      ],
      "type": "VEC3"
    },
    {
      "bufferView": 2,
      "byteOffset": 13068,
      "componentType": 5126,
      "count": 121,
      "max": [
        0.15053801238536835,
        1.0,
        6.975132471609413e-09
      ],
      "min": [
        -0.037949882447719574,
        0.9886043071746826,
        -0.009504902176558971
      ],
      "type": "VEC3"
    },
    {
      "bufferView": 1,
      "byteOffset": 3872,
      "componentType": 5126,
      "count": 121,
      "max": [
        1.0,
        1.0
      ],
      "min": [
        0.0,
        0.0
      ],
      "type": "VEC2"
    },
    {
      "bufferView": 0,
      "byteOffset": 9600,
      "componentType": 5125,
      "count": 600,
      "type": "SCALAR"
    },
    {
      "bufferView": 2,
      "byteOffset": 14520,
      "componentType": 5126,
      "count": 121,
      "max": [
        0.5267680883407593,
        0.47957420349121094,
        -0.03475964069366455
      ],
      "min": [
        -0.4576774537563324,
        -0.00816361140459776,
        -1.0357308387756348
      ],
      "type": "VEC3"
    },
    {
      "bufferView": 2,
      "byteOffset": 15972,
      "componentType": 5126,
      "count": 121,
      "max": [
        0.7225255370140076,
        1.0,
        0.0714668482542038
      ],
      "min": [
        -0.04076160117983818,
        0.6913443207740784,
        -0.025462118908762932
      ],
      "type": "VEC3"
    },
    {
      "bufferView": 1,
      "byteOffset": 4840,
      "componentType": 5126,
      "count": 121,
      "max": [
        1.0,
        1.0
      ],
      "min": [
        0.0,
        0.0
      ],
      "type": "VEC2"
    },
    {
      "bufferView": 0,
      "byteOffset": 12000,
      "componentType": 5125,
      "count": 600,
      "type": "SCALAR"
    },
    {
      "bufferView": 2,
      "byteOffset": 17424,
      "componentType": 5126,
      "count": 121,
      "max": [
        0.5267680883407593,
        0.012662558816373348,
        -0.03573077917098999
      ],
      "min": [
        -0.47323188185691833,
        -0.012662554159760475,
        -1.0357308387756348
      ],
      "type": "VEC3"
    },
    {
      "bufferView": 2,
      "byteOffset": 18876,
      "componentType": 5126,
      "count": 121,
      "max": [
        0.24673521518707275,
        1.0,
        2.1738113531455383e-09
      ],
      "min": [
        -0.0631025955080986,
        0.9690830111503601,
        -0.015856092795729637
      ],
      "type": "VEC3"
    },
    {
      "bufferView": 1,
      "byteOffset": 5808,
      "componentType": 5126,
      "count": 121,
      "max": [
        1.0,
        1.0
      ],
      "min": [
        0.0,
        0.0
      ],
      "type": "VEC2"
    },
    {
      "bufferView": 0,
      "byteOffset": 14400,
      "componentType": 5125,
      "count": 600,
      "type": "SCALAR"
    }
  ],
  "asset": {
    "extras": {
      "author": "GroundZer0 (https://sketchfab.com/GroundZer0)",
      "license": "CC-BY-4.0 (http://creativecommons.org/licenses/by/4.0/)",
      "source": "https://sketchfab.com/3d-models/papers-wip-ef6bdf9c783240378c0f7677e74541a0",
      "title": "Papers WIP"
    },
    "generator": "Sketchfab-12.65.0",
    "version": "2.0"
  },
  "bufferViews": [
    {
      "buffer": 0,
      "byteLength": 16800,
      "name": "floatBufferViews",
      "target": 34963
    },
    {
      "buffer": 0,
      "byteLength": 6776,
      "byteOffset": 16800,
      "byteStride": 8,
      "name": "floatBufferViews",
      "target": 34962
    },
    {
      "buffer": 0,
      "byteLength": 20328,
      "byteOffset": 23576,
      "byteStride": 12,
      "name": "floatBufferViews",
      "target": 34962
    }
  ],
  "buffers": [
    {
      "byteLength": 43904,
      "uri": "scene.bin"
    }
  ],
  "materials": [
    {
      "doubleSided": true,
      "name": "lambert1",
      "pbrMetallicRoughness": {
        "baseColorFactor": [
          0.5,
          0.5,
          0.5,
          1.0
        ],
        "metallicFactor": 0.0,
        "roughnessFactor": 0.6
      }
    }
  ],
  "meshes": [
    {
      "name": "pPlane1_lambert1_0",
      "primitives": [
        {
          "attributes": {
            "NORMAL": 1,
            "POSITION": 0,
            "TEXCOORD_0": 2
          },
          "indices": 3,
          "material": 0,
          "mode": 4
        }
      ]
    },
    {
      "name": "pPlane2_lambert1_0",
      "primitives": [
        {
          "attributes": {
            "NORMAL": 5,
            "POSITION": 4,
            "TEXCOORD_0": 6
          },
          "indices": 7,
          "material": 0,
          "mode": 4
        }
      ]
    },
    {
      "name": "pPlane3_lambert1_0",
      "primitives": [
        {
          "attributes": {
            "NORMAL": 9,
            "POSITION": 8,
            "TEXCOORD_0": 10
          },
          "indices": 11,
          "material": 0,
          "mode": 4
        }
      ]
    },
    {
      "name": "pPlane4_lambert1_0",
      "primitives": [
        {
          "attributes": {
            "NORMAL": 13,
            "POSITION": 12,
            "TEXCOORD_0": 14
          },
          "indices": 15,
          "material": 0,
          "mode": 4
        }
      ]
    },
    {
      "name": "pPlane5_lambert1_0",
      "primitives": [
        {
          "attributes": {
            "NORMAL": 17,
            "POSITION": 16,
            "TEXCOORD_0": 18
          },
          "indices": 19,
          "material": 0,
          "mode": 4
        }
      ]
    },
    {
      "name": "pPlane6_lambert1_0",
      "primitives": [
        {
          "attributes": {
            "NORMAL": 21,
            "POSITION": 20,
            "TEXCOORD_0": 22
          },
          "indices": 23,
          "material": 0,
          "mode": 4
        }
      ]
    },
    {
      "name": "pPlane7_lambert1_0",
      "primitives": [
        {
          "attributes": {
            "NORMAL": 25,
            "POSITION": 24,
            "TEXCOORD_0": 26
          },
          "indices": 27,
          "material": 0,
          "mode": 4
        }
      ]
    }
  ],
  "nodes": [
    {
      "children": [
        1
      ],
      "matrix": [
        1.0,
        0.0,
        0.0,
        0.0,
        0.0,
        2.220446049250313e-16,
        -1.0,
        0.0,
        0.0,
        1.0,
        2.220446049250313e-16,
        0.0,
        0.0,
        0.0,
        0.0,
        1.0
      ],
      "name": "Sketchfab_model"
    },
    {
      "children": [
        2
      ],
      "matrix": [
        1.0,
        0.0,
        0.0,
        0.0,
        0.0,
        0.0,
        1.0,
        0.0,
        0.0,
        -1.0,
        0.0,
        0.0,
        0.0,
        0.0,
        0.0,
        1.0
      ],
      "name": "4f34ec47b83841be8ef2ad379054d71e.fbx"
    },
    {
      "children": [
        3,
        5,
        7,
        9,
        11,
        13,
        15
      ],
      "name": "RootNode"
    },
    {
      "children": [
        4
      ],
      "matrix": [
        2.4573183059692383,
        0.0,
        0.0,
        0.0,
        0.0,
        1.0,
        0.0,
        0.0,
        0.0,
        0.0,
        1.630068302154541,
        0.0,
        0.0,
        0.3034976124763489,
        0.0,
        1.0
      ],
      "name": "pPlane1"
    },
    {
      "mesh": 0,
      "name": "pPlane1_lambert1_0"
    },
    {
      "children": [
        6
      ],
      "matrix": [
        2.093046771882258,
        0.0,
        1.287465909282567,
        0.0,
        0.0,
        1.0,
        0.0,
        0.0,
        -0.8540437613344986,
        0.0,
        1.3884278603566733,
        0.0,
        0.3494988679885864,
        0.2728235423564911,
        -1.0007500648498535,
        1.0
      ],
      "name": "pPlane2"
    },
    {
      "mesh": 1,
      "name": "pPlane2_lambert1_0"
    },
    {
      "children": [
        8
      ],
      "matrix": [
        2.3378867046361984,
        0.0,
        -0.7567687976765576,
        0.0,
        0.0,
        1.0,
        0.0,
        0.0,
        0.5020044925216139,
        0.0,
        1.5508430478862472,
        0.0,
        0.12426698952913284,
        0.23362353444099426,
        0.7651974558830261,
        1.0
      ],
      "name": "pPlane3"
    },
    {
      "mesh": 2,
      "name": "pPlane3_lambert1_0"
    },
    {
      "children": [
        10
      ],
      "matrix": [
        2.450376992703927,
        0.0,
        -0.18456936495200482,
        0.0,
        0.0,
        1.0,
        0.0,
        0.0,
        0.12243455421555088,
        0.0,
        1.6254637644755503,
        0.0,
        -4.180250644683838,
        0.3034976124763489,
        1.3118298053741455,
        1.0
      ],
      "name": "pPlane4"
    },
    {
      "mesh": 3,
      "name": "pPlane4_lambert1_0"
    },
    {
      "children": [
        12
      ],
      "matrix": [
        2.3613669658521523,
        0.0,
        0.6799700798077271,
        0.0,
        0.0,
        1.0,
        0.0,
        0.0,
        -0.45105986913278007,
        0.0,
        1.566418738443494,
        0.0,
        -4.273033142089844,
        0.22769591212272644,
        0.846348762512207,
        1.0
      ],
      "name": "pPlane5"
    },
    {
      "mesh": 4,
      "name": "pPlane5_lambert1_0"
    },
    {
      "children": [
        14
      ],
      "matrix": [
        0.9079850865540227,
        0.48688137688230493,
        -2.2309018051658396,
        0.0,
        -0.07469225353034703,
        0.9801746898933454,
        0.18351742302855714,
        0.0,
        1.5098067313728163,
        9.04869680381804e-17,
        0.6144967889178272,
        0.0,
        -1.7395414113998413,
        0.20540232956409454,
        4.602205753326416,
        1.0
      ],
      "name": "pPlane6"
    },
    {
      "mesh": 5,
      "name": "pPlane6_lambert1_0"
    },
    {
      "children": [
        16
      ],
      "matrix": [
        1.8966753372897192,
        0.0,
        1.5623814904716635,
        0.0,
        0.0,
        1.0,
        0.0,
        0.0,
        -1.0364097061842779,
        0.0,
        1.2581643734488777,
        0.0,
        -1.9244884252548218,
        0.22769591212272644,
        4.136724948883057,
        1.0
      ],
      "name": "pPlane7"
    },
    {
      "mesh": 6,
      "name": "pPlane7_lambert1_0"
    }
  ],
  "scene": 0,
  "scenes": [
    {
      "name": "Sketchfab_Scene",
      "nodes": [
        0
      ]
    }
  ]
}
