{
  "accessors": [
    {
      "bufferView": 2,
      "componentType": 5126,
      "count": 1026,
      "max": [
        5.669232368469238,
        12.863933563232422,
        4.469177722930908
      ],
      "min": [
        -5.669232368469238,
        0.0,
        -4.469177722930908
      ],
      "type": "VEC3"
    },
    {
      "bufferView": 2,
      "byteOffset": 12312,
      "componentType": 5126,
      "count": 1026,
      "max": [
        0.9997742176055908,
        0.9975765347480774,
        0.9968923330307007
      ],
      "min": [
        -0.9992505311965942,
        -0.9973000884056091,
        -0.999962329864502
      ],
      "type": "VEC3"
    },
    {
      "bufferView": 1,
      "componentType": 5126,
      "count": 1026,
      "max": [
        1.0,
        1.0
      ],
      "min": [
        0.0,
        0.0
      ],
      "type": "VEC2"
    },
    {
      "bufferView": 0,
      "componentType": 5125,
      "count": 1536,
      "type": "SCALAR"
    },
    {
      "bufferView": 2,
      "byteOffset": 24624,
      "componentType": 5126,
      "count": 461,
      "max": [
        12.352538108825684,
        11.88824462890625,
        9.667375564575195
      ],
      "min": [
        -12.352538108825684,
        0.0,
        -9.667375564575195
      ],
      "type": "VEC3"
    },
    {
      "bufferView": 2,
      "byteOffset": 30156,
      "componentType": 5126,
      "count": 461,
      "max": [
        0.8634971380233765,
        0.989445686340332,
        0.9647706151008606
      ],
      "min": [
        -0.9590215682983398,
        -0.507121205329895,
        -0.9638681411743164
      ],
      "type": "VEC3"
    },
    {
      "bufferView": 1,
      "byteOffset": 8208,
      "componentType": 5126,
      "count": 461,
      "max": [
        1.0043442249298096,
        1.0043442249298096
      ],
      "min": [
        -0.004344229120761156,
        -0.004344229120761156
      ],
      "type": "VEC2"
    },
    {
      "bufferView": 0,
      "byteOffset": 6144,
      "componentType": 5125,
      "count": 1536,
      "type": "SCALAR"
    },
    {
      "bufferView": 2,
      "byteOffset": 35688,
      "componentType": 5126,
      "count": 1022,
      "max": [
        5.037160396575928,
        7.526355743408203,
        4.708920955657959
      ],
      "min": [
        -5.037160396575928,
        0.0,
        -4.708920955657959
      ],
      "type": "VEC3"
    },
    {
      "bufferView": 2,
      "byteOffset": 47952,
      "componentType": 5126,
      "count": 1022,
      "max": [
        0.9968500137329102,
        0.9931126832962036,
        0.9907876253128052
      ],
      "min": [
        -0.993022084236145,
        -0.999904453754425,
        -0.9995637536048889
      ],
      "type": "VEC3"
    },
    {
      "bufferView": 1,
      "byteOffset": 11896,
      "componentType": 5126,
      "count": 1022,
      "max": [
        1.0043442249298096,
        1.0043442249298096
      ],
      "min": [
        -0.004344229120761156,
        -0.004344229120761156
      ],
      "type": "VEC2"
    },
    {
      "bufferView": 0,
      "byteOffset": 12288,
      "componentType": 5125,
      "count": 1536,
      "type": "SCALAR"
    }
  ],
  "asset": {
    "extras": {
      "author": "Design Factory (https://sketchfab.com/SrColmillo)",
      "license": "CC-BY-4.0 (http://creativecommons.org/licenses/by/4.0/)",
      "source": "https://sketchfab.com/3d-models/papeles-test003-90d94a3ef4ad4f5aa330cf272b99e4f7",
      "title": "papeles_test003"
    },
    "generator": "Sketchfab-12.66.0",
    "version": "2.0"
  },
  "bufferViews": [
    {
      "buffer": 0,
      "byteLength": 18432,
      "name": "floatBufferViews",
      "target": 34963
    },
    {
      "buffer": 0,
      "byteLength": 20072,
      "byteOffset": 18432,
      "byteStride": 8,
      "name": "floatBufferViews",
      "target": 34962
    },
    {
      "buffer": 0,
      "byteLength": 60216,
      "byteOffset": 38504,
      "byteStride": 12,
      "name": "floatBufferViews",
      "target": 34962
    }
  ],
  "buffers": [
    {
      "byteLength": 98720,
      "uri": "scene.bin"
    }
  ],
  "extensionsRequired": [
    "KHR_materials_pbrSpecularGlossiness"
  ],
  "extensionsUsed": [
    "KHR_materials_pbrSpecularGlossiness"
  ],
  "images": [
    {
      "uri": "textures/papel_diffuse.jpeg"
    }
  ],
  "materials": [
    {
      "doubleSided": true,
      "extensions": {
        "KHR_materials_pbrSpecularGlossiness": {
          "diffuseFactor": [
            1.0,
            1.0,
            1.0,
            1.0
          ],
          "diffuseTexture": {
            "index": 0
          },
          "glossinessFactor": 0.0,
          "specularFactor": [
            0.0,
            0.0,
            0.0
          ]
        }
      },
      "name": "papel"
    }
  ],
  "meshes": [
    {
      "name": "Mesh (4)_papel_0",
      "primitives": [
        {
          "attributes": {
            "NORMAL": 1,
            "POSITION": 0,
            "TEXCOORD_0": 2
          },
          "indices": 3,
          "material": 0,
          "mode": 4
        }
      ]
    },
    {
      "name": "Mesh (7)_papel_0",
      "primitives": [
        {
          "attributes": {
            "NORMAL": 5,
            "POSITION": 4,
            "TEXCOORD_0": 6
          },
          "indices": 7,
          "material": 0,
          "mode": 4
        }
      ]
    },
    {
      "name": "Mesh (8)_papel_0",
      "primitives": [
        {
          "attributes": {
            "NORMAL": 9,
            "POSITION": 8,
            "TEXCOORD_0": 10
          },
          "indices": 11,
          "material": 0,
          "mode": 4
        }
      ]
    }
  ],
  "nodes": [
    {
      "children": [
        1
      ],
      "matrix": [
        1.0,
        0.0,
        0.0,
        0.0,
        0.0,
        2.220446049250313e-16,
        -1.0,
        0.0,
        0.0,
        1.0,
        2.220446049250313e-16,
        0.0,
        0.0,
        0.0,
        0.0,
        1.0
      ],
      "name": "Sketchfab_model"
    },
    {
      "children": [
        2
      ],
      "matrix": [
        1.0,
        0.0,
        0.0,
        0.0,
        0.0,
        0.0,
        1.0,
        0.0,
        0.0,
        -1.0,
        0.0,
        0.0,
        0.0,
        0.0,
        0.0,
        1.0
      ],
      "name": "scene.fbx"
    },
    {
      "children": [
        3,
        5,
        7,
        9
      ],
      "name": "RootNode"
    },
    {
      "children": [
        4
      ],
      "matrix": [
        -0.43837112599661454,
        5.36849796290375e-17,
        0.8987940564403287,
        0.0,
        2.325352063459668e-16,
        1.0,
        5.36849796290375e-17,
        0.0,
        -0.8987940564403287,
        2.325352063459668e-16,
        -0.43837112599661454,
        0.0,
        13.699999809265137,
        0.0,
        7.500000476837158,
        1.0
      ],
      "name": "Mesh (4)"
    },
    {
      "mesh": 0,
      "name": "Mesh (4)_papel_0"
    },
    {
      "children": [
        6
      ],
      "matrix": [
        1.0,
        0.0,
        0.0,
        0.0,
        0.0,
        1.0,
        0.0,
        0.0,
        0.0,
        0.0,
        1.0,
        0.0,
        0.0,
        0.0,
        -9.0,
        1.0
      ],
      "name": "Mesh (7)"
    },
    {
      "mesh": 1,
      "name": "Mesh (7)_papel_0"
    },
    {
      "children": [
        8
      ],
      "matrix": [
        1.0,
        0.0,
        0.0,
        0.0,
        0.0,
        1.0,
        0.0,
        0.0,
        0.0,
        0.0,
        1.0,
        0.0,
        0.0,
        0.0,
        7.90000057220459,
        1.0
      ],
      "name": "Mesh (8)"
    },
    {
      "mesh": 2,
      "name": "Mesh (8)_papel_0"
    },
    {
      "children": [
        10
      ],
      "matrix": [
        0.5816282237153266,
        -0.47702485337205647,
        -0.6589050755936867,
        0.0,
        0.31568362332634914,
        0.8788898049615594,
        -0.3576262863635441,
        0.0,
        0.7497015801912796,
        -8.326672684688674e-17,
        0.6617760502305129,
        0.0,
        -44.31496047973633,
        47.61481475830078,
        65.1613540649414,
        1.0
      ],
      "name": "Camera"
    },
    {
      "name": "Object_10"
    }
  ],
  "samplers": [
    {
      "magFilter": 9729,
      "minFilter": 9987,
      "wrapS": 10497,
      "wrapT": 10497
    }
  ],
  "scene": 0,
  "scenes": [
    {
      "name": "Sketchfab_Scene",
      "nodes": [
        0
      ]
    }
  ],
  "textures": [
    {
      "sampler": 0,
      "source": 0
    }
  ]
}
