{
  "accessors": [
    {
      "bufferView": 2,
      "componentType": 5126,
      "count": 150,
      "max": [
        2.359999895095825,
        2.359999895095825,
        5.940000057220459
      ],
      "min": [
        -2.359999895095825,
        -2.359999895095825,
        -5.239999771118164
      ],
      "type": "VEC3"
    },
    {
      "bufferView": 2,
      "byteOffset": 1800,
      "componentType": 5126,
      "count": 150,
      "max": [
        1.0,
        1.0,
        1.0
      ],
      "min": [
        -0.9905522465705872,
        -0.9905514717102051,
        -1.0
      ],
      "type": "VEC3"
    },
    {
      "bufferView": 1,
      "componentType": 5126,
      "count": 150,
      "max": [
        0.2460940033197403,
        0.75
      ],
      "min": [
        0.0,
        0.5039060115814209
      ],
      "type": "VEC2"
    },
    {
      "bufferView": 0,
      "componentType": 5125,
      "count": 372,
      "type": "SCALAR"
    }
  ],
  "asset": {
    "extras": {
      "author": "SilentQuest (https://sketchfab.com/SilentQuest)",
      "license": "CC-BY-NC-4.0 (http://creativecommons.org/licenses/by-nc/4.0/)",
      "source": "https://sketchfab.com/3d-models/silent-hill-1-meshes-health-drink-56873e2cf6bc44b280ea85a553e29dec",
      "title": "Silent Hill 1 Meshes - Health Drink"
    },
    "generator": "Sketchfab-15.31.0",
    "version": "2.0"
  },
  "bufferViews": [
    {
      "buffer": 0,
      "byteLength": 1488,
      "name": "floatBufferViews",
      "target": 34963
    },
    {
      "buffer": 0,
      "byteLength": 1200,
      "byteOffset": 1488,
      "byteStride": 8,
      "name": "floatBufferViews",
      "target": 34962
    },
    {
      "buffer": 0,
      "byteLength": 3600,
      "byteOffset": 2688,
      "byteStride": 12,
      "name": "floatBufferViews",
      "target": 34962
    }
  ],
  "buffers": [
    {
      "byteLength": 6288,
      "uri": "scene.bin"
    }
  ],
  "images": [
    {
      "uri": "textures/VRAM_page_15.007_baseColor.png"
    }
  ],
  "materials": [
    {
      "doubleSided": true,
      "name": "VRAM_page_15.007",
      "pbrMetallicRoughness": {
        "baseColorTexture": {
          "index": 0
        },
        "metallicFactor": 0.0
      }
    }
  ],
  "meshes": [
    {
      "name": "pillbottle_VRAM page #15.007_0",
      "primitives": [
        {
          "attributes": {
            "NORMAL": 1,
            "POSITION": 0,
            "TEXCOORD_0": 2
          },
          "indices": 3,
          "material": 0,
          "mode": 4
        }
      ]
    }
  ],
  "nodes": [
    {
      "children": [
        1
      ],
      "matrix": [
        1.0,
        0.0,
        0.0,
        0.0,
        0.0,
        2.220446049250313e-16,
        -1.0,
        0.0,
        0.0,
        1.0,
        2.220446049250313e-16,
        0.0,
        0.0,
        0.0,
        0.0,
        1.0
      ],
      "name": "Sketchfab_model"
    },
    {
      "children": [
        2
      ],
      "matrix": [
        0.009999999776482582,
        0.0,
        0.0,
        0.0,
        0.0,
        0.0,
        0.009999999776482582,
        0.0,
        0.0,
        -0.009999999776482582,
        0.0,
        0.0,
        0.0,
        0.0,
        0.0,
        1.0
      ],
      "name": "89e8870d643d46458a2a70d73d09218e.fbx"
    },
    {
      "children": [
        3
      ],
      "name": "RootNode"
    },
    {
      "children": [
        4
      ],
      "matrix": [
        10.000001907348633,
        0.0,
        0.0,
        0.0,
        0.0,
        -1.6292071046648492e-06,
        -10.000001907348501,
        0.0,
        0.0,
        10.000001907348501,
        -1.6292071046648492e-06,
        0.0,
        0.0,
        0.0,
        0.0,
        1.0
      ],
      "name": "pillbottle"
    },
    {
      "mesh": 0,
      "name": "pillbottle_VRAM page #15.007_0"
    }
  ],
  "samplers": [
    {
      "magFilter": 9728,
      "minFilter": 9986,
      "wrapS": 10497,
      "wrapT": 10497
    }
  ],
  "scene": 0,
  "scenes": [
    {
      "name": "Sketchfab_Scene",
      "nodes": [
        0
      ]
    }
  ],
  "textures": [
    {
      "sampler": 0,
      "source": 0
    }
  ]
}
