{
  "accessors": [
    {
      "bufferView": 2,
      "componentType": 5126,
      "count": 65532,
      "max": [
        7.515449047088623,
        2.9117190837860107,
        10.445340156555176
      ],
      "min": [
        -4.932857036590576,
        -18.006662368774414,
        -2.5906729698181152
      ],
      "type": "VEC3"
    },
    {
      "bufferView": 2,
      "byteOffset": 786384,
      "componentType": 5126,
      "count": 65532,
      "max": [
        0.9999716281890869,
        0.9999942183494568,
        0.9999275207519531
      ],
      "min": [
        -0.9999960064888,
        -1.0,
        -0.9997682571411133
      ],
      "type": "VEC3"
    },
    {
      "bufferView": 1,
      "componentType": 5126,
      "count": 65532,
      "max": [
        0.9991459846496582,
        0.99863600730896
      ],
      "min": [
        0.0007319999858736992,
        0.007563999854028225
      ],
      "type": "VEC2"
    },
    {
      "bufferView": 0,
      "componentType": 5125,
      "count": 361704,
      "type": "SCALAR"
    },
    {
      "bufferView": 2,
      "byteOffset": 1572768,
      "componentType": 5126,
      "count": 65532,
      "max": [
        7.935206890106201,
        1.111433982849121,
        8.793017387390137
      ],
      "min": [
        -3.9004058837890625,
        -21.115312576293945,
        -8.08057975769043
      ],
      "type": "VEC3"
    },
    {
      "bufferView": 2,
      "byteOffset": 2359152,
      "componentType": 5126,
      "count": 65532,
      "max": [
        0.9999996423721313,
        0.999988853931427,
        0.9999577403068542
      ],
      "min": [
        -0.9999914765357971,
        -1.0,
        -0.9999929070472717
      ],
      "type": "VEC3"
    },
    {
      "bufferView": 1,
      "byteOffset": 524256,
      "componentType": 5126,
      "count": 65532,
      "max": [
        0.9992679953575134,
        0.9966520071029663
      ],
      "min": [
        0.0007319999858736992,
        0.0007440000190399587
      ],
      "type": "VEC2"
    },
    {
      "bufferView": 0,
      "byteOffset": 1446816,
      "componentType": 5125,
      "count": 359541,
      "type": "SCALAR"
    },
    {
      "bufferView": 2,
      "byteOffset": 3145536,
      "componentType": 5126,
      "count": 65532,
      "max": [
        7.9157209396362305,
        3.3185579776763916,
        10.778852462768555
      ],
      "min": [
        -1.795549988746643,
        -21.55643653869629,
        -8.392129898071289
      ],
      "type": "VEC3"
    },
    {
      "bufferView": 2,
      "byteOffset": 3931920,
      "componentType": 5126,
      "count": 65532,
      "max": [
        0.9996681213378906,
        0.999988853931427,
        0.9999977350234985
      ],
      "min": [
        -0.9999868869781494,
        -0.9999995231628418,
        -0.9999840259552002
      ],
      "type": "VEC3"
    },
    {
      "bufferView": 1,
      "byteOffset": 1048512,
      "componentType": 5126,
      "count": 65532,
      "max": [
        0.9991459846496582,
        0.9992560148239136
      ],
      "min": [
        0.0007319999858736992,
        0.0007440000190399587
      ],
      "type": "VEC2"
    },
    {
      "bufferView": 0,
      "byteOffset": 2884980,
      "componentType": 5125,
      "count": 350469,
      "type": "SCALAR"
    },
    {
      "bufferView": 2,
      "byteOffset": 4718304,
      "componentType": 5126,
      "count": 65532,
      "max": [
        1.7062879800796509,
        4.192262172698975,
        10.251442909240723
      ],
      "min": [
        -4.843142986297607,
        -15.198678970336914,
        -8.626803398132324
      ],
      "type": "VEC3"
    },
    {
      "bufferView": 2,
      "byteOffset": 5504688,
      "componentType": 5126,
      "count": 65532,
      "max": [
        0.9998852610588074,
        0.9974710941314697,
        0.9999708533287048
      ],
      "min": [
        -0.9999982118606567,
        -0.9999993443489075,
        -0.9999840259552002
      ],
      "type": "VEC3"
    },
    {
      "bufferView": 1,
      "byteOffset": 1572768,
      "componentType": 5126,
      "count": 65532,
      "max": [
        0.9992679953575134,
        0.9978920221328735
      ],
      "min": [
        0.0007319999858736992,
        0.0007440000190399587
      ],
      "type": "VEC2"
    },
    {
      "bufferView": 0,
      "byteOffset": 4286856,
      "componentType": 5125,
      "count": 354894,
      "type": "SCALAR"
    },
    {
      "bufferView": 2,
      "byteOffset": 6291072,
      "componentType": 5126,
      "count": 56082,
      "max": [
        1.6396290063858032,
        3.3236939907073975,
        9.423359870910645
      ],
      "min": [
        -4.705747127532959,
        -8.297174453735352,
        -8.918885231018066
      ],
      "type": "VEC3"
    },
    {
      "bufferView": 2,
      "byteOffset": 6964056,
      "componentType": 5126,
      "count": 56082,
      "max": [
        0.9960136413574219,
        0.9988821148872375,
        0.9999839067459106
      ],
      "min": [
        -0.9999850988388062,
        -0.9999997615814209,
        -0.999957263469696
      ],
      "type": "VEC3"
    },
    {
      "bufferView": 1,
      "byteOffset": 2097024,
      "componentType": 5126,
      "count": 56082,
      "max": [
        0.9992679953575134,
        0.9951639771461487
      ],
      "min": [
        0.0167239997535944,
        0.0007440000190399587
      ],
      "type": "VEC2"
    },
    {
      "bufferView": 0,
      "byteOffset": 5706432,
      "componentType": 5125,
      "count": 310341,
      "type": "SCALAR"
    }
  ],
  "asset": {
    "extras": {
      "author": "Geoffrey Marchal (https://sketchfab.com/geoffreymarchal)",
      "license": "CC-BY-NC-SA-4.0 (http://creativecommons.org/licenses/by-nc-sa/4.0/)",
      "source": "https://sketchfab.com/3d-models/chest-of-drawers-regence-f9e872e24e8948c8a3462806b684a9d8",
      "title": "Chest of drawers \"Régence\""
    },
    "generator": "Sketchfab-15.12.0",
    "version": "2.0"
  },
  "bufferViews": [
    {
      "buffer": 0,
      "byteLength": 6947796,
      "name": "floatBufferViews",
      "target": 34963
    },
    {
      "buffer": 0,
      "byteLength": 2545680,
      "byteOffset": 6947796,
      "byteStride": 8,
      "name": "floatBufferViews",
      "target": 34962
    },
    {
      "buffer": 0,
      "byteLength": 7637040,
      "byteOffset": 9493476,
      "byteStride": 12,
      "name": "floatBufferViews",
      "target": 34962
    }
  ],
  "buffers": [
    {
      "byteLength": 17130516,
      "uri": "scene.bin"
    }
  ],
  "extensionsUsed": [
    "KHR_materials_specular"
  ],
  "images": [
    {
      "uri": "textures/Material_0_baseColor.jpeg"
    },
    {
      "uri": "textures/Material_0_specularf0.png"
    }
  ],
  "materials": [
    {
      "doubleSided": true,
      "extensions": {
        "KHR_materials_specular": {
          "specularColorFactor": [
            1.0,
            1.0,
            1.0
          ],
          "specularFactor": 1.0,
          "specularTexture": {
            "index": 1
          }
        }
      },
      "name": "Material_0",
      "pbrMetallicRoughness": {
        "baseColorTexture": {
          "index": 0
        },
        "metallicFactor": 0.0
      }
    }
  ],
  "meshes": [
    {
      "name": "Object_0",
      "primitives": [
        {
          "attributes": {
            "NORMAL": 1,
            "POSITION": 0,
            "TEXCOORD_0": 2
          },
          "indices": 3,
          "material": 0,
          "mode": 4
        }
      ]
    },
    {
      "name": "Object_1",
      "primitives": [
        {
          "attributes": {
            "NORMAL": 5,
            "POSITION": 4,
            "TEXCOORD_0": 6
          },
          "indices": 7,
          "material": 0,
          "mode": 4
        }
      ]
    },
    {
      "name": "Object_2",
      "primitives": [
        {
          "attributes": {
            "NORMAL": 9,
            "POSITION": 8,
            "TEXCOORD_0": 10
          },
          "indices": 11,
          "material": 0,
          "mode": 4
        }
      ]
    },
    {
      "name": "Object_3",
      "primitives": [
        {
          "attributes": {
            "NORMAL": 13,
            "POSITION": 12,
            "TEXCOORD_0": 14
          },
          "indices": 15,
          "material": 0,
          "mode": 4
        }
      ]
    },
    {
      "name": "Object_4",
      "primitives": [
        {
          "attributes": {
            "NORMAL": 17,
            "POSITION": 16,
            "TEXCOORD_0": 18
          },
          "indices": 19,
          "material": 0,
          "mode": 4
        }
      ]
    }
  ],
  "nodes": [
    {
      "children": [
        1
      ],
      "matrix": [
        0.29517561197280884,
        0.033663041889667726,
        -0.9548497796058655,
        0.0,
        -0.03882536292076111,
        -0.9981310367584229,
        -0.047191113233566506,
        0.0,
        -0.9546538591384888,
        0.051002059131860795,
        -0.29331696033477783,
        0.0,
        0.0,
        0.0,
        0.0,
        1.0
      ],
      "name": "Sketchfab_model"
    },
    {
      "children": [
        2,
        3,
        4,
        5,
        6
      ],
      "name": "commode regence.obj.cleaner.materialmerger.gles"
    },
    {
      "mesh": 0,
      "name": "Object_2"
    },
    {
      "mesh": 1,
      "name": "Object_3"
    },
    {
      "mesh": 2,
      "name": "Object_4"
    },
    {
      "mesh": 3,
      "name": "Object_5"
    },
    {
      "mesh": 4,
      "name": "Object_6"
    }
  ],
  "samplers": [
    {
      "magFilter": 9729,
      "minFilter": 9987,
      "wrapS": 10497,
      "wrapT": 10497
    },
    {
      "magFilter": 9728,
      "minFilter": 9728,
      "wrapS": 10497,
      "wrapT": 10497
    }
  ],
  "scene": 0,
  "scenes": [
    {
      "name": "Sketchfab_Scene",
      "nodes": [
        0
      ]
    }
  ],
  "textures": [
    {
      "sampler": 0,
      "source": 0
    },
    {
      "sampler": 1,
      "source": 1
    }
  ]
}
