{
  "accessors": [
    {
      "bufferView": 2,
      "componentType": 5126,
      "count": 65532,
      "max": [
        0.6359128355979919,
        1.1438626050949097,
        0.25292104482650757
      ],
      "min": [
        -0.577692985534668,
        0.16600684821605682,
        -0.43535536527633667
      ],
      "type": "VEC3"
    },
    {
      "bufferView": 2,
      "byteOffset": 786384,
      "componentType": 5126,
      "count": 65532,
      "max": [
        0.9999964833259583,
        1.0,
        0.9999922513961792
      ],
      "min": [
        -0.9999254941940308,
        -0.9999973177909851,
        -0.9999994039535522
      ],
      "type": "VEC3"
    },
    {
      "bufferView": 3,
      "componentType": 5126,
      "count": 65532,
      "max": [
        0.9999988079071045,
        0.9999864101409912,
        0.9999949336051941,
        1.0
      ],
      "min": [
        -1.0,
        -0.9999423623085022,
        -0.9999956488609314,
        -1.0
      ],
      "type": "VEC4"
    },
    {
      "bufferView": 1,
      "componentType": 5126,
      "count": 65532,
      "max": [
        0.9999656677246094,
        0.9999484419822693
      ],
      "min": [
        0.003280072007328272,
        0.0071083903312683105
      ],
      "type": "VEC2"
    },
    {
      "bufferView": 1,
      "byteOffset": 524256,
      "componentType": 5126,
      "count": 65532,
      "max": [
        0.9999656677246094,
        0.9999484419822693
      ],
      "min": [
        0.003280072007328272,
        0.0071083903312683105
      ],
      "type": "VEC2"
    },
    {
      "bufferView": 1,
      "byteOffset": 1048512,
      "componentType": 5126,
      "count": 65532,
      "max": [
        0.9999656677246094,
        0.9999484419822693
      ],
      "min": [
        0.003280072007328272,
        0.0071083903312683105
      ],
      "type": "VEC2"
    },
    {
      "bufferView": 1,
      "byteOffset": 1572768,
      "componentType": 5126,
      "count": 65532,
      "max": [
        0.9999656677246094,
        0.9999484419822693
      ],
      "min": [
        0.003280072007328272,
        0.0071083903312683105
      ],
      "type": "VEC2"
    },
    {
      "bufferView": 1,
      "byteOffset": 2097024,
      "componentType": 5126,
      "count": 65532,
      "max": [
        0.9999656677246094,
        0.9999484419822693
      ],
      "min": [
        0.003280072007328272,
        0.0071083903312683105
      ],
      "type": "VEC2"
    },
    {
      "bufferView": 0,
      "componentType": 5125,
      "count": 347538,
      "type": "SCALAR"
    },
    {
      "bufferView": 2,
      "byteOffset": 1572768,
      "componentType": 5126,
      "count": 42623,
      "max": [
        0.6325656175613403,
        1.147889494895935,
        0.2518124580383301
      ],
      "min": [
        -0.5780898928642273,
        0.16600684821605682,
        -0.4332004189491272
      ],
      "type": "VEC3"
    },
    {
      "bufferView": 2,
      "byteOffset": 2084244,
      "componentType": 5126,
      "count": 42623,
      "max": [
        0.9999871850013733,
        0.9999991655349731,
        0.9999949932098389
      ],
      "min": [
        -0.9999680519104004,
        -0.9999950528144836,
        -0.9999998211860657
      ],
      "type": "VEC3"
    },
    {
      "bufferView": 3,
      "byteOffset": 1048512,
      "componentType": 5126,
      "count": 42623,
      "max": [
        0.9999985694885254,
        0.9999975562095642,
        0.9999035000801086,
        -1.0
      ],
      "min": [
        -0.9999505281448364,
        -0.9998736381530762,
        -0.9999010562896729,
        -1.0
      ],
      "type": "VEC4"
    },
    {
      "bufferView": 1,
      "byteOffset": 2621280,
      "componentType": 5126,
      "count": 42623,
      "max": [
        0.9999414086341858,
        0.9998601078987122
      ],
      "min": [
        2.8274052965571173e-05,
        0.008481621742248535
      ],
      "type": "VEC2"
    },
    {
      "bufferView": 1,
      "byteOffset": 2962264,
      "componentType": 5126,
      "count": 42623,
      "max": [
        0.9999414086341858,
        0.9998601078987122
      ],
      "min": [
        2.8274052965571173e-05,
        0.008481621742248535
      ],
      "type": "VEC2"
    },
    {
      "bufferView": 1,
      "byteOffset": 3303248,
      "componentType": 5126,
      "count": 42623,
      "max": [
        0.9999414086341858,
        0.9998601078987122
      ],
      "min": [
        2.8274052965571173e-05,
        0.008481621742248535
      ],
      "type": "VEC2"
    },
    {
      "bufferView": 1,
      "byteOffset": 3644232,
      "componentType": 5126,
      "count": 42623,
      "max": [
        0.9999414086341858,
        0.9998601078987122
      ],
      "min": [
        2.8274052965571173e-05,
        0.008481621742248535
      ],
      "type": "VEC2"
    },
    {
      "bufferView": 1,
      "byteOffset": 3985216,
      "componentType": 5126,
      "count": 42623,
      "max": [
        0.9999414086341858,
        0.9998601078987122
      ],
      "min": [
        2.8274052965571173e-05,
        0.008481621742248535
      ],
      "type": "VEC2"
    },
    {
      "bufferView": 0,
      "byteOffset": 1390152,
      "componentType": 5125,
      "count": 218097,
      "type": "SCALAR"
    }
  ],
  "asset": {
    "extras": {
      "author": "Jordan F (https://sketchfab.com/JordanF)",
      "license": "CC-BY-NC-SA-4.0 (http://creativecommons.org/licenses/by-nc-sa/4.0/)",
      "source": "https://sketchfab.com/3d-models/antique-wooden-commode-louis-xv-style-raw-scan-f2dab99b31a94d44b7c016362fef6072",
      "title": "Antique Wooden Commode Louis XV Style (Raw Scan)"
    },
    "generator": "Sketchfab-16.14.0",
    "version": "2.0"
  },
  "bufferViews": [
    {
      "buffer": 0,
      "byteLength": 2262540,
      "name": "floatBufferViews",
      "target": 34963
    },
    {
      "buffer": 0,
      "byteLength": 4326200,
      "byteOffset": 2262540,
      "byteStride": 8,
      "name": "floatBufferViews",
      "target": 34962
    },
    {
      "buffer": 0,
      "byteLength": 2595720,
      "byteOffset": 6588740,
      "byteStride": 12,
      "name": "floatBufferViews",
      "target": 34962
    },
    {
      "buffer": 0,
      "byteLength": 1730480,
      "byteOffset": 9184460,
      "byteStride": 16,
      "name": "floatBufferViews",
      "target": 34962
    }
  ],
  "buffers": [
    {
      "byteLength": 10914940,
      "uri": "scene.bin"
    }
  ],
  "images": [
    {
      "uri": "textures/material_0_baseColor.jpeg"
    },
    {
      "uri": "textures/material_0_metallicRoughness.png"
    },
    {
      "uri": "textures/material_0_normal.jpeg"
    }
  ],
  "materials": [
    {
      "name": "material_0",
      "normalTexture": {
        "index": 2,
        "texCoord": 2
      },
      "occlusionTexture": {
        "index": 1,
        "texCoord": 3
      },
      "pbrMetallicRoughness": {
        "baseColorTexture": {
          "index": 0
        },
        "metallicFactor": 0.0,
        "metallicRoughnessTexture": {
          "index": 1,
          "texCoord": 1
        }
      }
    }
  ],
  "meshes": [
    {
      "name": "Object_0",
      "primitives": [
        {
          "attributes": {
            "NORMAL": 1,
            "POSITION": 0,
            "TANGENT": 2,
            "TEXCOORD_0": 3,
            "TEXCOORD_1": 4,
            "TEXCOORD_2": 5,
            "TEXCOORD_3": 6,
            "TEXCOORD_4": 7
          },
          "indices": 8,
          "material": 0,
          "mode": 4
        }
      ]
    },
    {
      "name": "Object_1",
      "primitives": [
        {
          "attributes": {
            "NORMAL": 10,
            "POSITION": 9,
            "TANGENT": 11,
            "TEXCOORD_0": 12,
            "TEXCOORD_1": 13,
            "TEXCOORD_2": 14,
            "TEXCOORD_3": 15,
            "TEXCOORD_4": 16
          },
          "indices": 17,
          "material": 0,
          "mode": 4
        }
      ]
    }
  ],
  "nodes": [
    {
      "children": [
        1
      ],
      "matrix": [
        1.0,
        0.0,
        0.0,
        0.0,
        0.0,
        2.220446049250313e-16,
        -1.0,
        0.0,
        0.0,
        1.0,
        2.220446049250313e-16,
        0.0,
        0.0,
        0.0,
        0.0,
        1.0
      ],
      "name": "Sketchfab_model"
    },
    {
      "children": [
        2
      ],
      "name": "root"
    },
    {
      "children": [
        3
      ],
      "matrix": [
        1.0,
        0.0,
        0.0,
        0.0,
        0.0,
        2.220446049250313e-16,
        1.0,
        0.0,
        0.0,
        -1.0,
        2.220446049250313e-16,
        0.0,
        0.0,
        0.0,
        0.0,
        1.0
      ],
      "name": "GLTF_SceneRootNode"
    },
    {
      "children": [
        4,
        5
      ],
      "name": "_0"
    },
    {
      "mesh": 0,
      "name": "Object_4"
    },
    {
      "mesh": 1,
      "name": "Object_5"
    }
  ],
  "samplers": [
    {
      "magFilter": 9729,
      "minFilter": 9987,
      "wrapS": 10497,
      "wrapT": 10497
    }
  ],
  "scene": 0,
  "scenes": [
    {
      "name": "Sketchfab_Scene",
      "nodes": [
        0
      ]
    }
  ],
  "textures": [
    {
      "sampler": 0,
      "source": 0
    },
    {
      "sampler": 0,
      "source": 1
    },
    {
      "sampler": 0,
      "source": 2
    }
  ]
}
