{
  "accessors": [
    {
      "bufferView": 2,
      "componentType": 5126,
      "count": 43189,
      "max": [
        88.98807525634766,
        35.66908264160156,
        253.66856384277344
      ],
      "min": [
        -92.95504760742188,
        -29.5836238861084,
        -0.08274900168180466
      ],
      "type": "VEC3"
    },
    {
      "bufferView": 2,
      "byteOffset": 518268,
      "componentType": 5126,
      "count": 43189,
      "max": [
        0.9999979138374329,
        0.9999997019767761,
        0.999997615814209
      ],
      "min": [
        -0.9999933242797852,
        -0.999997079372406,
        -0.9999986886978149
      ],
      "type": "VEC3"
    },
    {
      "bufferView": 3,
      "componentType": 5126,
      "count": 43189,
      "max": [
        1.0,
        1.0,
        0.9999974966049194,
        1.0
      ],
      "min": [
        -0.9996517896652222,
        -1.0,
        -0.9999998211860657,
        1.0
      ],
      "type": "VEC4"
    },
    {
      "bufferView": 1,
      "componentType": 5126,
      "count": 43189,
      "max": [
        0.9155020117759705,
        0.9980080127716064
      ],
      "min": [
        0.0018269999418407679,
        0.0019920000340789557
      ],
      "type": "VEC2"
    },
    {
      "bufferView": 0,
      "componentType": 5125,
      "count": 180000,
      "type": "SCALAR"
    }
  ],
  "asset": {
    "extras": {
      "author": "IUPUI University Library (https://sketchfab.com/iupuiul)",
      "license": "CC-BY-4.0 (http://creativecommons.org/licenses/by/4.0/)",
      "source": "https://sketchfab.com/3d-models/framed-photo-of-elizabeth-harrison-preview-b12ca7b02cbe4957b5bf6cbbf25d5776",
      "title": "Framed Photo of Elizabeth Harrison - Preview"
    },
    "generator": "Sketchfab-12.68.0",
    "version": "2.0"
  },
  "bufferViews": [
    {
      "buffer": 0,
      "byteLength": 720000,
      "name": "floatBufferViews",
      "target": 34963
    },
    {
      "buffer": 0,
      "byteLength": 345512,
      "byteOffset": 720000,
      "byteStride": 8,
      "name": "floatBufferViews",
      "target": 34962
    },
    {
      "buffer": 0,
      "byteLength": 1036536,
      "byteOffset": 1065512,
      "byteStride": 12,
      "name": "floatBufferViews",
      "target": 34962
    },
    {
      "buffer": 0,
      "byteLength": 691024,
      "byteOffset": 2102048,
      "byteStride": 16,
      "name": "floatBufferViews",
      "target": 34962
    }
  ],
  "buffers": [
    {
      "byteLength": 2793072,
      "uri": "scene.bin"
    }
  ],
  "images": [
    {
      "uri": "textures/material_0_baseColor.png"
    },
    {
      "uri": "textures/material_0_normal.png"
    }
  ],
  "materials": [
    {
      "doubleSided": true,
      "name": "material_0",
      "normalTexture": {
        "index": 1
      },
      "pbrMetallicRoughness": {
        "baseColorTexture": {
          "index": 0
        },
        "metallicFactor": 0.0,
        "roughnessFactor": 0.23951981707317074
      }
    }
  ],
  "meshes": [
    {
      "name": "Object_0",
      "primitives": [
        {
          "attributes": {
            "NORMAL": 1,
            "POSITION": 0,
            "TANGENT": 2,
            "TEXCOORD_0": 3
          },
          "indices": 4,
          "material": 0,
          "mode": 4
        }
      ]
    }
  ],
  "nodes": [
    {
      "children": [
        1
      ],
      "matrix": [
        1.0,
        0.0,
        0.0,
        0.0,
        0.0,
        2.220446049250313e-16,
        -1.0,
        0.0,
        0.0,
        1.0,
        2.220446049250313e-16,
        0.0,
        0.0,
        0.0,
        0.0,
        1.0
      ],
      "name": "Sketchfab_model"
    },
    {
      "children": [
        2
      ],
      "name": "Elizabeth Harrison Picture - Preview.obj.cleaner.materialmerger.gles"
    },
    {
      "mesh": 0,
      "name": "Object_2"
    }
  ],
  "samplers": [
    {
      "magFilter": 9729,
      "minFilter": 9987,
      "wrapS": 10497,
      "wrapT": 10497
    }
  ],
  "scene": 0,
  "scenes": [
    {
      "name": "Sketchfab_Scene",
      "nodes": [
        0
      ]
    }
  ],
  "textures": [
    {
      "sampler": 0,
      "source": 0
    },
    {
      "sampler": 0,
      "source": 1
    }
  ]
}
